<svg width="1440" height="1024" viewBox="0 0 1440 1024" fill="none" xmlns="http://www.w3.org/2000/svg">
<g clip-path="url(#clip0_101_29)">
<rect width="1440" height="1024" fill="white"/>
<path d="M63 94.5C63 111.211 66.3934 124.972 70.2004 136.185C71.9332 141.288 73.7547 145.871 75.3721 149.941C75.5288 150.335 75.6835 150.724 75.8361 151.109C77.5752 155.492 79.0094 159.2 79.828 162.374C80.6504 165.562 80.7865 167.984 80.1543 169.873C79.55 171.679 78.1544 173.25 75.2999 174.558C72.4005 175.887 68.1143 176.885 61.9714 177.542C55.849 178.196 47.9875 178.5 38 178.5C-41.5373 178.5 -105.5 125.411 -105.5 60.5C-105.5 -4.41122 -41.5373 -57.5 38 -57.5C57.7748 -57.5 68.8394 -52.1058 74.6819 -43.4569C80.6016 -34.6939 81.4755 -22.1674 79.7899 -7.16676C78.4409 4.83768 75.4923 18.1567 72.4237 32.0178C71.6672 35.4349 70.9034 38.885 70.1545 42.3564C66.382 59.8433 63 77.8252 63 94.5Z" fill="#172CEC" stroke="#E0CECE" stroke-width="3"/>
<path d="M26.5547 846.653C28.5425 868.234 39.7275 889.58 68.235 908.318C45.0887 935.107 36.5961 956.558 35.6211 973.743C34.6289 991.233 41.4393 1004.04 47.9681 1013.24C49.5977 1015.54 51.2123 1017.62 52.6785 1019.48C52.9122 1019.78 53.1415 1020.07 53.3661 1020.35C54.5612 1021.87 55.625 1023.21 56.5119 1024.44C57.5737 1025.9 58.3007 1027.08 58.6751 1028.04C59.0459 1029 58.9837 1029.5 58.8271 1029.81C58.6501 1030.17 58.1486 1030.69 56.7555 1031.22C55.3839 1031.74 53.3671 1032.18 50.5181 1032.52C44.8299 1033.22 36.1688 1033.5 23.5 1033.5C-77.2248 1033.5 -158.5 962.79 -158.5 876C-158.5 854.122 -155.972 840.174 -150.137 829.806C-144.32 819.467 -135.097 812.477 -121.168 804.777C-114.878 801.3 -107.659 797.695 -99.4263 793.584C-71.2691 779.524 -31.2551 759.543 23.9951 718.501C36.2979 718.548 44.2045 720.353 49.0153 723.398C53.7422 726.39 55.6377 730.684 55.6452 736.299C55.6529 742.032 53.6804 749.036 50.6526 757.133C48.7814 762.137 46.551 767.451 44.1959 773.063C42.7395 776.533 41.2353 780.117 39.7388 783.812C31.9621 803.012 24.5456 824.84 26.5547 846.653Z" fill="#172CEC" stroke="#E0CECE" stroke-width="3"/>
<path d="M907.049 -54.375C933.649 -40.9907 950.263 -23.0699 952.29 -3.54855C946.743 -9.21722 941.467 -12.75 936.328 -14.4358C930.268 -16.4235 924.542 -15.7953 919.031 -13.3178C913.568 -10.8621 908.32 -6.59444 903.097 -1.30783C897.868 3.98545 892.577 10.3904 887.058 17.1972C886.361 18.056 885.661 18.9212 884.957 19.7915C863.265 46.5963 837.623 78.2812 796.427 78.4989C771.981 63.324 741.342 54.5744 713.733 46.6907C707.261 44.8424 700.955 43.0417 694.935 41.217C678.934 36.3672 664.996 31.3675 655.068 24.9139C645.187 18.4916 639.5 10.7857 639.5 0.5C639.5 -20.5841 656.522 -40.0704 684.951 -54.375C713.294 -68.6359 752.553 -77.5 796 -77.5C839.447 -77.5 878.706 -68.6359 907.049 -54.375Z" fill="#172CEC" stroke="#E0CECE" stroke-width="3"/>
<path d="M1515.5 988C1515.5 1021.7 1481.99 1049.5 1440 1049.5C1398.37 1049.5 1365.07 1022.17 1364.51 988.864C1379.07 980.449 1388.58 972.315 1395.27 964.811C1401.89 957.39 1405.71 950.624 1408.9 944.97C1408.99 944.809 1409.08 944.648 1409.17 944.488C1412.45 938.689 1415.02 934.31 1419.27 931.284C1423.47 928.29 1429.52 926.5 1440 926.5C1481.99 926.5 1515.5 954.302 1515.5 988Z" fill="#172CEC" stroke="#E0CECE" stroke-width="3"/>
<path d="M1515.5 402C1515.5 470.375 1506.89 532.219 1493.01 576.918C1486.07 599.277 1477.84 617.262 1468.76 629.624C1459.67 642.017 1449.93 648.501 1440 648.501C1439.08 648.501 1437.85 648.102 1436.27 647.081C1434.7 646.072 1432.92 644.533 1430.93 642.45C1426.94 638.286 1422.26 632.106 1416.99 624.114C1406.46 608.14 1393.71 585.125 1379.57 557.025C1351.31 500.838 1317.59 424.47 1285.19 343.804C1252.8 263.14 1221.74 178.208 1198.78 104.897C1175.8 31.5112 1161 -30.0222 1161 -64C1161 -72.4717 1161.92 -78.9205 1163.6 -83.62C1165.26 -88.303 1167.64 -91.1478 1170.5 -92.6243C1173.37 -94.1069 1176.98 -94.3405 1181.39 -93.284C1185.81 -92.2262 1190.89 -89.9015 1196.57 -86.4398C1219.32 -72.5553 1250.26 -41.1981 1282.69 -5.356C1298.88 12.5369 1315.41 31.5014 1331.43 49.8945L1331.88 50.4174C1347.74 68.6202 1363.1 86.2501 1377.12 101.685C1391.27 117.262 1404.1 130.641 1414.74 140.134C1420.06 144.879 1424.86 148.687 1429.04 151.317C1433.17 153.913 1436.9 155.5 1440 155.5C1449.93 155.5 1459.67 161.984 1468.76 174.377C1477.84 186.739 1486.07 204.724 1493.01 227.082C1506.89 271.781 1515.5 333.624 1515.5 402Z" fill="#172CEC" stroke="#E0CECE" stroke-width="3"/>
</g>
<defs>
<clipPath id="clip0_101_29">
<rect width="1440" height="1024" fill="white"/>
</clipPath>
</defs>
</svg>
